<svg width="512" height="512" viewBox="0 0 512 512" fill="none" xmlns="http://www.w3.org/2000/svg">
<path d="M256 512C397.385 512 512 397.385 512 256C512 114.615 397.385 0 256 0C114.615 0 0 114.615 0 256C0 397.385 114.615 512 256 512Z" fill="#CCC5B9"/>
<path d="M256 472C374.373 472 472 374.373 472 256C472 137.627 374.373 40 256 40C137.627 40 40 137.627 40 256C40 374.373 137.627 472 256 472Z" fill="#FFFCF2"/>
<path d="M256 392L336 336L280 256L336 176L256 120L176 176L232 256L176 336L256 392Z" fill="#403D39"/>
<path d="M256 341.333L298.667 309.333L266.667 256L298.667 202.667L256 170.667L213.333 202.667L245.333 256L213.333 309.333L256 341.333Z" fill="#CCC5B9"/>
</svg>